<?xml version="1.0" standalone="no"?>
<!DOCTYPE svg PUBLIC "-//W3C//DTD SVG 20010904//EN"
 "http://www.w3.org/TR/2001/REC-SVG-20010904/DTD/svg10.dtd">
<svg version="1.0" xmlns="http://www.w3.org/2000/svg"
 width="700.000000pt" height="700.000000pt" viewBox="0 0 700.000000 700.000000"
 preserveAspectRatio="xMidYMid meet">
<metadata>
Created by potrace 1.14, written by Peter Selinger 2001-2017
</metadata>
<g transform="translate(0.000000,700.000000) scale(0.100000,-0.100000)"
fill="#000000" stroke="none">
<path d="M0 3500 l0 -3500 3500 0 3500 0 0 3500 0 3500 -3500 0 -3500 0 0
-3500z m5348 3063 l2 -203 -1850 0 -1850 0 0 198 c0 109 3 202 7 205 3 4 835
6 1847 5 l1841 -3 3 -202z m-3068 -768 l0 -315 -205 0 -205 0 0 315 0 315 205
0 205 0 0 -315z m2850 0 l0 -315 -205 0 -205 0 0 315 0 315 205 0 205 0 0
-315z m218 -762 l2 -203 -1850 0 -1850 0 0 198 c0 109 3 202 7 205 3 4 835 6
1847 5 l1841 -3 3 -202z m-3068 -768 l0 -315 -205 0 -205 0 0 315 0 315 205 0
205 0 0 -315z m2850 0 l0 -315 -205 0 -205 0 0 315 0 315 205 0 205 0 0 -315z
m215 -765 l0 -205 -1845 0 -1845 0 -3 195 c-1 107 0 200 2 207 4 11 357 13
1848 11 l1843 -3 0 -205z m-3065 -765 l0 -315 -205 0 -205 0 0 315 0 315 205
0 205 0 0 -315z m2850 0 l0 -315 -205 0 -205 0 0 315 0 315 205 0 205 0 0
-315z m218 -767 l-3 -203 -1845 0 -1845 0 -3 203 -2 202 1850 0 1850 0 -2
-202z m-3068 -763 l0 -315 -205 0 -205 0 0 315 0 315 205 0 205 0 0 -315z
m2850 0 l0 -315 -205 0 -205 0 0 315 0 315 205 0 205 0 0 -315z m218 -767 l-3
-203 -1845 0 -1845 0 -3 203 -2 202 1850 0 1850 0 -2 -202z"/>
</g>
</svg>
